<svg width="476" height="128" viewBox="0 0 476 128" fill="none" xmlns="http://www.w3.org/2000/svg">
<path d="M247.377 52.1718C250.233 53.7363 252.542 55.8933 254.303 58.6429C256.064 61.3689 257.016 64.474 257.207 67.9111H257.254V88.3911H247.377V86.1155C244.64 87.6326 241.594 88.3911 238.309 88.3911C235.025 88.3911 232.026 87.6326 229.265 86.1155C226.29 84.4563 223.887 82.1807 222.102 79.2651C220.293 76.3496 219.412 73.1259 219.412 69.5703V68.7407C219.412 65.1614 220.317 61.914 222.102 58.9985C223.91 56.0829 226.29 53.8074 229.265 52.1955C232.002 50.6548 235.025 49.8726 238.309 49.8726C241.594 49.8726 244.64 50.6548 247.377 52.1955V52.1718ZM247.377 70.3526V67.9111H247.33C247.092 65.7066 246.211 63.8577 244.688 62.3644C242.927 60.6103 240.808 59.7333 238.286 59.7333C235.763 59.7333 233.668 60.6103 231.907 62.3644C230.146 64.1185 229.265 66.2281 229.265 68.7407V69.5703C229.265 72.0355 230.146 74.1688 231.907 75.9229C233.668 77.677 235.81 78.554 238.286 78.554C240.761 78.554 242.927 77.677 244.688 75.8992C246.211 74.4059 247.092 72.557 247.33 70.3526H247.377Z" fill="#3EB0E5"/>
<path d="M289.622 52.1719C292.597 53.8074 295.001 56.083 296.786 58.9748C298.595 61.8904 299.475 65.1378 299.475 68.7171V69.5467C299.475 73.1022 298.571 76.3259 296.786 79.2415C294.977 82.1571 292.597 84.4326 289.622 86.0919C286.885 87.6089 283.839 88.3674 280.554 88.3674C277.27 88.3674 274.271 87.6089 271.51 86.0919C268.654 84.48 266.346 82.323 264.585 79.5733C262.823 76.8474 261.848 73.7422 261.657 70.3052V42.4771H271.534V52.1245C274.271 50.5837 277.294 49.8015 280.578 49.8015C283.863 49.8015 286.909 50.5837 289.646 52.1245L289.622 52.1719ZM289.622 69.5704V68.7408C289.622 66.2282 288.742 64.1185 286.98 62.3645C285.219 60.6104 283.077 59.7333 280.554 59.7333C278.032 59.7333 275.961 60.6104 274.2 62.3645C272.677 63.8578 271.796 65.7067 271.558 67.9111H271.51V70.3526H271.558C271.796 72.5571 272.677 74.4059 274.2 75.8993C275.961 77.6771 278.079 78.5541 280.554 78.5541C283.03 78.5541 285.219 77.677 286.98 75.923C288.742 74.1689 289.622 72.0356 289.622 69.5704Z" fill="#3EB0E5"/>
<path d="M313.684 50.7022C316.397 49.1852 319.396 48.4266 322.68 48.4266H323.466V58.2163C323.204 58.1926 322.942 58.1689 322.68 58.1689C320.205 58.1689 318.087 59.0459 316.326 60.8C314.565 62.554 313.684 64.6637 313.684 67.1289V88.32H303.855V67.1289C303.855 63.5733 304.735 60.3496 306.52 57.4815C308.305 54.5896 310.685 52.3377 313.66 50.7022H313.684Z" fill="#3EB0E5"/>
<path d="M351.835 76.4208C352.502 75.7808 353.073 75.046 353.501 74.24H363.926C362.522 79.5734 359.38 83.5556 354.501 86.2104C351.764 87.6563 348.718 88.3912 345.433 88.3912C342.149 88.3912 339.15 87.6563 336.389 86.2104C334.89 85.4282 333.533 84.4563 332.319 83.3186C330.106 81.28 328.488 78.8386 327.488 75.9704C326.845 74.1689 326.512 72.2726 326.512 70.2815V67.9349C326.512 64.5215 327.417 61.4163 329.202 58.643C331.01 55.846 333.39 53.6652 336.365 52.1008C339.102 50.6549 342.125 49.92 345.409 49.92C348.694 49.92 351.74 50.6549 354.477 52.1008C355.977 52.883 357.333 53.8549 358.547 54.9926C360.76 57.0312 362.379 59.4726 363.378 62.2934L354.477 68.3141L340.673 77.6534C342.077 78.5304 343.648 78.9571 345.409 78.9571C347.932 78.9571 350.05 78.1038 351.812 76.4208H351.835ZM336.413 67.9586V69.9734L350.217 60.6341C348.789 59.7571 347.194 59.3304 345.433 59.3304C342.958 59.3304 340.816 60.1837 339.055 61.8667C337.294 63.5497 336.413 65.5882 336.413 67.9823V67.9586Z" fill="#3EB0E5"/>
<path d="M393.366 50.5126V49.0904C393.366 48.7111 393.676 48.4267 394.033 48.4267H401.554C401.934 48.4267 402.22 48.7348 402.22 49.0904V79.4311C402.22 97.7304 377.468 101.381 369.781 87.2296C369.614 86.9215 369.709 86.5185 370.042 86.3289L376.326 82.7496C376.492 82.6548 376.659 82.6311 376.849 82.6785C377.016 82.7259 377.159 82.8444 377.254 82.9867C380.586 88.9126 393.366 88.5333 393.366 80.2844C386.179 84.1955 377.23 82.4889 372.018 76.2074C366.806 69.9259 366.806 60.8237 372.018 54.5422C377.23 48.2607 386.203 46.5541 393.366 50.4652V50.5126ZM376.944 65.4222C376.944 69.9496 380.61 73.6 385.155 73.6C389.701 73.6 393.366 69.9496 393.366 65.4222C393.366 60.8948 389.701 57.2444 385.155 57.2444C380.61 57.2444 376.944 60.8948 376.944 65.4222Z" fill="#3EB0E5"/>
<path d="M432.208 76.4208C432.874 75.7808 433.446 75.046 433.874 74.24H444.298C442.894 79.5734 439.753 83.5556 434.874 86.2104C432.137 87.6563 429.09 88.3912 425.806 88.3912C422.521 88.3912 419.523 87.6563 416.762 86.2104C415.262 85.4282 413.906 84.4563 412.692 83.3186C410.479 81.28 408.86 78.8386 407.861 75.9704C407.218 74.1689 406.885 72.2726 406.885 70.2815V67.9349C406.885 64.5215 407.789 61.4163 409.574 58.643C411.383 55.846 413.763 53.6652 416.738 52.1008C419.475 50.6549 422.498 49.92 425.782 49.92C429.066 49.92 432.113 50.6549 434.85 52.1008C436.349 52.883 437.706 53.8549 438.92 54.9926C441.133 57.0312 442.751 59.4726 443.751 62.2934L434.85 68.3141L421.046 77.6534C422.45 78.5304 424.021 78.9571 425.782 78.9571C428.305 78.9571 430.423 78.1038 432.184 76.4208H432.208ZM416.762 67.9586V69.9734L430.566 60.6341C429.138 59.7571 427.543 59.3304 425.782 59.3304C423.307 59.3304 421.165 60.1837 419.404 61.8667C417.642 63.5497 416.762 65.5882 416.762 67.9823V67.9586Z" fill="#3EB0E5"/>
<path d="M458.555 69.5703C458.555 72.0355 459.435 74.1689 461.196 75.9229C462.958 77.677 465.1 78.554 467.575 78.554C467.86 78.554 468.146 78.554 468.408 78.5066V88.3674H467.575C464.29 88.3674 461.292 87.6089 458.531 86.0918C455.556 84.4326 453.152 82.157 451.367 79.2415C449.558 76.3259 448.678 73.1022 448.678 69.5466V42.5244H458.555V69.5466V69.5703Z" fill="#3EB0E5"/>
<path d="M175.644 30.3171C182.998 34.3467 188.901 39.9408 193.327 47.123C197.754 54.3052 199.991 62.3171 199.991 71.1586V73.1971C199.991 81.9675 197.778 89.9319 193.327 97.1141C188.901 104.296 182.998 109.938 175.644 114.039C168.861 117.784 161.388 119.633 153.248 119.633C145.109 119.633 137.731 117.76 130.971 114.039C123.903 110.08 118.215 104.747 113.883 97.9912C109.551 91.2356 107.148 83.6267 106.624 75.1408V6.49487H130.971V30.3171C137.754 26.5008 145.18 24.6045 153.248 24.6045C161.316 24.6045 168.861 26.5008 175.644 30.3171ZM175.644 73.1971V71.1586C175.644 64.9719 173.454 59.7334 169.099 55.4193C164.744 51.1052 159.46 48.9482 153.248 48.9482C147.036 48.9482 141.896 51.1052 137.564 55.4193C133.804 59.0934 131.638 63.6445 131.067 69.0964H130.948V75.1408H131.067C131.638 80.5927 133.804 85.1675 137.564 88.8178C141.896 93.203 147.132 95.3838 153.248 95.3838C159.365 95.3838 164.744 93.203 169.099 88.8652C173.454 84.5275 175.644 79.2889 175.644 73.1971Z" fill="url(#paint0_linear_6373_244)"/>
<path d="M143.99 37.3571C143.585 37.3571 132.447 37.4045 128.377 37.4045C108.48 37.4519 106.576 31.2179 106.6 26.5245V74.2875C106.6 76.1601 106.838 61.7957 128.377 61.4638C133.685 61.369 143.585 61.4638 143.99 61.4638C150.606 61.4638 155.961 56.0594 155.961 49.4223C155.961 42.7853 150.606 37.3808 143.99 37.3808V37.3571Z" fill="url(#paint1_linear_6373_244)"/>
<path d="M75.6126 31.526C82.586 35.3423 88.2028 40.5808 92.463 47.2416C96.7232 53.9023 99.0793 61.4164 99.5078 69.7601H99.603V119.562H75.6126V114.039C68.9248 117.713 61.5706 119.562 53.5262 119.562C45.4818 119.562 38.2466 117.713 31.5588 114.039C24.2998 110.009 18.4926 104.439 14.1134 97.3512C9.73415 90.2638 7.54456 82.4179 7.54456 73.766V71.7512C7.54456 63.0519 9.73415 55.1586 14.1134 48.0712C18.4926 40.9838 24.2998 35.4608 31.5588 31.5023C38.2466 27.7571 45.5532 25.8845 53.5262 25.8845C61.4992 25.8845 68.9248 27.7571 75.6126 31.5023V31.526ZM75.6126 75.7097V69.7601H75.5173C74.9462 64.3793 72.8042 59.8756 69.1152 56.2727C64.855 52.0297 59.6666 49.8964 53.55 49.8964C47.4334 49.8964 42.3402 52.0297 38.0324 56.2727C33.7246 60.5156 31.5826 65.683 31.5826 71.7749V73.7897C31.5826 79.8104 33.7246 84.9541 38.0324 89.2445C42.3402 93.5349 47.5048 95.6682 53.55 95.6682C59.5952 95.6682 64.855 93.5112 69.1152 89.1971C72.8042 85.5941 74.9462 81.0904 75.5173 75.7097H75.6126Z" fill="url(#paint2_linear_6373_244)"/>
<defs>
<linearGradient id="paint0_linear_6373_244" x1="106.6" y1="63.0756" x2="199.968" y2="63.0756" gradientUnits="userSpaceOnUse">
<stop offset="0.01" stop-color="#104379"/>
<stop offset="1" stop-color="#2F6BB2"/>
</linearGradient>
<linearGradient id="paint1_linear_6373_244" x1="106.6" y1="50.489" x2="155.985" y2="50.489" gradientUnits="userSpaceOnUse">
<stop offset="0.15" stop-color="#3BAFE5"/>
<stop offset="1" stop-color="#6EC6D8"/>
</linearGradient>
<linearGradient id="paint2_linear_6373_244" x1="7.59216" y1="72.7467" x2="99.6029" y2="72.7467" gradientUnits="userSpaceOnUse">
<stop offset="0.15" stop-color="#3BAFE5"/>
<stop offset="1" stop-color="#6EC6D8"/>
</linearGradient>
</defs>
</svg>
