<svg width="399" height="399" viewBox="0 0 399 399" fill="none" xmlns="http://www.w3.org/2000/svg">
<path d="M55.0022 281.115C59.2316 283.45 62.643 286.642 65.2365 290.711C67.83 294.781 69.2465 299.35 69.5058 304.457H69.5656V334.861H54.9822V331.489C50.9124 333.744 46.4436 334.861 41.5559 334.861C36.6681 334.861 32.2592 333.744 28.2093 331.489C23.8004 329.015 20.2692 325.624 17.6159 321.315C14.9625 316.986 13.6259 312.198 13.6259 306.931V305.694C13.6259 300.387 14.9625 295.559 17.6159 291.23C20.2692 286.901 23.8004 283.529 28.2093 281.115C32.2791 278.821 36.728 277.684 41.5559 277.684C46.3838 277.684 50.9124 278.821 54.9822 281.115H55.0022ZM55.0022 308.088V304.457H54.9423C54.6032 301.165 53.3064 298.432 51.0521 296.218C48.4586 293.624 45.3065 292.327 41.5758 292.327C37.8452 292.327 34.7529 293.624 32.1395 296.218C29.526 298.811 28.2093 301.963 28.2093 305.694V306.931C28.2093 310.602 29.526 313.754 32.1395 316.367C34.7529 318.981 37.905 320.297 41.5758 320.297C45.2466 320.297 48.4586 318.981 51.0521 316.347C53.3064 314.153 54.6032 311.4 54.9423 308.108H55.0022V308.088Z" fill="white"/>
<path d="M117.446 281.115C121.855 283.529 125.386 286.901 128.039 291.23C130.692 295.559 132.029 300.367 132.029 305.694V306.931C132.029 312.198 130.692 317.006 128.039 321.315C125.386 325.644 121.855 329.035 117.446 331.489C113.376 333.744 108.907 334.861 104.019 334.861C99.1315 334.861 94.7226 333.744 90.6727 331.489C86.4433 329.115 83.0319 325.883 80.4384 321.833C77.8449 317.764 76.3885 313.195 76.0893 308.088V266.791H90.6727V281.115C94.7425 278.821 99.1914 277.684 104.019 277.684C108.847 277.684 113.376 278.821 117.446 281.115ZM117.446 306.931V305.694C117.446 301.983 116.129 298.811 113.515 296.218C110.902 293.624 107.73 292.327 104.019 292.327C100.309 292.327 97.2163 293.624 94.6228 296.218C92.3685 298.412 91.0717 301.165 90.7326 304.457H90.6727V308.088H90.7326C91.0717 311.38 92.3685 314.113 94.6228 316.327C97.2163 318.961 100.348 320.277 104.019 320.277C107.69 320.277 110.902 318.961 113.515 316.347C116.129 313.734 117.446 310.582 117.446 306.911V306.931Z" fill="white"/>
<path d="M153.036 278.921C157.046 276.667 161.495 275.549 166.323 275.549H167.48V290.073C167.101 290.033 166.702 290.013 166.323 290.013C162.652 290.013 159.52 291.31 156.927 293.903C154.333 296.497 153.036 299.629 153.036 303.3V334.741H138.513V303.3C138.513 298.033 139.83 293.245 142.463 288.976C145.096 284.707 148.627 281.355 153.036 278.921Z" fill="white"/>
<path d="M209.455 317.105C210.453 316.148 211.271 315.07 211.909 313.853H227.33C225.255 321.754 220.607 327.679 213.385 331.609C209.315 333.764 204.847 334.861 199.959 334.861C195.071 334.861 190.662 333.783 186.612 331.609C184.418 330.452 182.403 329.015 180.587 327.34C177.296 324.307 174.922 320.676 173.465 316.447C172.508 313.774 172.029 310.961 172.029 308.028V304.537C172.029 299.489 173.366 294.881 176.019 290.731C178.672 286.582 182.203 283.35 186.612 281.016C190.682 278.861 195.131 277.784 199.959 277.784C204.787 277.784 209.315 278.861 213.385 281.016C215.58 282.193 217.595 283.609 219.41 285.305C222.702 288.337 225.076 291.948 226.532 296.138L213.365 305.075L192.936 318.941C195.011 320.237 197.345 320.896 199.939 320.896C203.65 320.896 206.822 319.639 209.415 317.145L209.455 317.105ZM186.632 304.517V307.489L207.061 293.624C204.946 292.327 202.592 291.689 199.999 291.689C196.328 291.689 193.176 292.946 190.562 295.44C187.949 297.953 186.632 300.966 186.632 304.517Z" fill="white"/>
<path d="M270.861 278.662V276.547C270.861 276.008 271.3 275.549 271.859 275.549H282.971C283.529 275.549 283.968 275.988 283.968 276.547V321.594C283.968 348.746 247.36 354.172 236.008 333.165C235.749 332.686 235.929 332.108 236.388 331.828L245.664 326.522C245.904 326.382 246.163 326.362 246.422 326.422C246.682 326.502 246.901 326.661 247.021 326.901C251.949 335.719 270.861 335.16 270.861 322.911C260.248 328.736 247.001 326.203 239.28 316.866C231.56 307.529 231.56 294.043 239.28 284.707C247.001 275.37 260.248 272.836 270.861 278.662ZM246.582 300.786C246.582 307.489 252.008 312.916 258.712 312.916C265.415 312.916 270.841 307.489 270.841 300.786C270.841 294.083 265.415 288.637 258.712 288.637C252.008 288.637 246.582 294.063 246.582 300.786Z" fill="white"/>
<path d="M328.277 317.105C329.275 316.148 330.093 315.07 330.731 313.853H346.152C344.078 321.754 339.429 327.679 332.207 331.609C328.138 333.764 323.669 334.861 318.781 334.861C313.893 334.861 309.484 333.783 305.434 331.609C303.24 330.452 301.225 329.015 299.41 327.34C296.118 324.307 293.744 320.676 292.267 316.447C291.31 313.774 290.831 310.961 290.831 308.028V304.537C290.831 299.489 292.168 294.881 294.821 290.731C297.474 286.582 301.006 283.35 305.414 281.016C309.484 278.861 313.933 277.784 318.761 277.784C323.589 277.784 328.118 278.861 332.187 281.016C334.382 282.193 336.397 283.609 338.212 285.305C341.504 288.337 343.878 291.948 345.354 296.138L332.187 305.075L311.759 318.941C313.833 320.237 316.168 320.896 318.761 320.896C322.472 320.896 325.624 319.639 328.237 317.145L328.277 317.105ZM305.454 304.517V307.489L325.883 293.624C323.769 292.327 321.414 291.689 318.821 291.689C315.15 291.689 311.998 292.946 309.385 295.44C306.771 297.953 305.454 300.966 305.454 304.517Z" fill="white"/>
<path d="M367.24 306.931C367.24 310.602 368.556 313.754 371.17 316.367C373.783 318.981 376.935 320.297 380.606 320.297C381.045 320.297 381.444 320.277 381.843 320.237V334.881H380.606C375.758 334.881 371.309 333.764 367.24 331.509C362.831 329.035 359.299 325.644 356.646 321.335C353.993 317.006 352.656 312.218 352.656 306.951V266.811H367.24V306.951V306.931Z" fill="white"/>
<path d="M32.1594 374.681H29.9649C29.7255 374.681 29.526 374.621 29.3664 374.501C29.2068 374.382 29.0871 374.222 29.0073 374.043L27.8702 370.93H21.546L20.4089 374.043C20.349 374.202 20.2493 374.362 20.0897 374.482C19.9301 374.621 19.7306 374.681 19.4912 374.681H17.2767L23.3016 359.399H26.1944L32.1993 374.681H32.1594ZM27.132 368.915L25.2767 363.828C25.1769 363.609 25.0971 363.329 24.9974 363.03C24.8976 362.711 24.7979 362.392 24.6981 362.033C24.5984 362.392 24.5186 362.731 24.4188 363.05C24.3191 363.369 24.2193 363.629 24.1395 363.868L22.2842 368.935H27.152L27.132 368.915Z" fill="white"/>
<path d="M39.9598 365.943C39.88 366.063 39.8202 366.142 39.7404 366.182C39.6606 366.222 39.5608 366.242 39.4411 366.242C39.3214 366.242 39.1818 366.202 39.0421 366.142C38.9025 366.063 38.7229 365.983 38.5434 365.903C38.3439 365.823 38.1444 365.743 37.885 365.664C37.6456 365.584 37.3464 365.564 37.0272 365.564C36.5085 365.564 36.1095 365.664 35.8102 365.883C35.511 366.102 35.3713 366.382 35.3713 366.741C35.3713 366.98 35.4511 367.16 35.5908 367.319C35.7504 367.479 35.9499 367.619 36.1893 367.738C36.4486 367.858 36.7279 367.958 37.0471 368.058C37.3663 368.157 37.6855 368.257 38.0047 368.377C38.3239 368.496 38.6631 368.616 38.9623 368.756C39.2616 368.895 39.5608 369.075 39.8202 369.314C40.0795 369.534 40.279 369.793 40.4187 370.112C40.5783 370.432 40.6381 370.791 40.6381 371.23C40.6381 371.748 40.5384 372.227 40.3588 372.666C40.1793 373.105 39.9 373.484 39.5209 373.803C39.1618 374.122 38.703 374.382 38.1643 374.561C37.6257 374.741 37.0072 374.821 36.289 374.821C35.91 374.821 35.5509 374.781 35.1918 374.721C34.8327 374.661 34.4935 374.561 34.1743 374.442C33.8551 374.322 33.5359 374.182 33.2566 374.023C32.9773 373.863 32.7379 373.683 32.5185 373.504L33.117 372.506C33.1968 372.387 33.2766 372.287 33.3963 372.227C33.496 372.167 33.6357 372.127 33.7953 372.127C33.9549 372.127 34.1145 372.167 34.2541 372.267C34.3938 372.367 34.5733 372.467 34.7529 372.566C34.9524 372.666 35.1718 372.766 35.4312 372.865C35.6905 372.965 36.0097 373.005 36.4087 373.005C36.7279 373.005 36.9873 372.965 37.2067 372.885C37.4262 372.806 37.6057 372.706 37.7653 372.586C37.905 372.466 38.0247 372.327 38.0845 372.167C38.1444 372.008 38.1843 371.848 38.1843 371.669C38.1843 371.409 38.1045 371.21 37.9648 371.05C37.8252 370.89 37.6057 370.751 37.3663 370.631C37.107 370.511 36.8277 370.412 36.5085 370.312C36.1893 370.212 35.8501 370.112 35.5309 369.993C35.2117 369.873 34.8726 369.753 34.5534 369.594C34.2342 369.434 33.9549 369.255 33.6955 369.015C33.4362 368.776 33.2367 368.496 33.097 368.157C32.9574 367.818 32.8776 367.419 32.8776 366.94C32.8776 366.501 32.9574 366.082 33.1369 365.664C33.3165 365.265 33.5758 364.905 33.915 364.606C34.2541 364.307 34.693 364.068 35.1918 363.888C35.6905 363.708 36.289 363.629 36.9673 363.629C37.7055 363.629 38.4037 363.748 39.0022 364.008C39.6207 364.247 40.1194 364.586 40.5384 364.985L39.9399 365.923L39.9598 365.943Z" fill="white"/>
<path d="M49.2366 365.943C49.1568 366.063 49.097 366.142 49.0172 366.182C48.9374 366.222 48.8376 366.242 48.7179 366.242C48.5982 366.242 48.4586 366.202 48.3189 366.142C48.1793 366.063 47.9997 365.983 47.8202 365.903C47.6207 365.823 47.4212 365.743 47.1618 365.664C46.9224 365.584 46.6232 365.564 46.304 365.564C45.7853 365.564 45.3863 365.664 45.087 365.883C44.7878 366.102 44.6481 366.382 44.6481 366.741C44.6481 366.98 44.7279 367.16 44.8676 367.319C45.0272 367.479 45.2267 367.619 45.4661 367.738C45.7254 367.858 46.0047 367.958 46.3239 368.058C46.6431 368.157 46.9623 368.257 47.2815 368.377C47.6007 368.496 47.9399 368.616 48.2391 368.756C48.5384 368.895 48.8376 369.075 49.097 369.314C49.3563 369.534 49.5558 369.793 49.6955 370.112C49.8551 370.432 49.9149 370.791 49.9149 371.23C49.9149 371.748 49.8152 372.227 49.6356 372.666C49.4561 373.105 49.1768 373.484 48.7977 373.803C48.4386 374.122 47.9798 374.382 47.4411 374.561C46.9025 374.741 46.284 374.821 45.5658 374.821C45.1868 374.821 44.8277 374.781 44.4686 374.721C44.1095 374.661 43.7703 374.561 43.4511 374.442C43.1319 374.322 42.8127 374.182 42.5334 374.023C42.2541 373.863 42.0147 373.683 41.7953 373.504L42.3938 372.506C42.4736 372.387 42.5534 372.287 42.6731 372.227C42.7728 372.167 42.9125 372.127 43.0721 372.127C43.2317 372.127 43.3913 372.167 43.5309 372.267C43.6706 372.367 43.8501 372.467 44.0297 372.566C44.2292 372.666 44.4486 372.766 44.708 372.865C44.9673 372.965 45.2865 373.005 45.6855 373.005C46.0047 373.005 46.2641 372.965 46.4835 372.885C46.703 372.806 46.8825 372.706 47.0421 372.586C47.1818 372.466 47.3015 372.327 47.3613 372.167C47.4212 372.008 47.4611 371.848 47.4611 371.669C47.4611 371.409 47.3813 371.21 47.2416 371.05C47.102 370.89 46.8825 370.751 46.6431 370.631C46.3838 370.511 46.1045 370.412 45.7853 370.312C45.4661 370.212 45.1269 370.112 44.8077 369.993C44.4885 369.873 44.1494 369.753 43.8302 369.594C43.511 369.434 43.2317 369.255 42.9723 369.015C42.713 368.776 42.5135 368.496 42.3738 368.157C42.2342 367.818 42.1544 367.419 42.1544 366.94C42.1544 366.501 42.2342 366.082 42.4137 365.664C42.5933 365.265 42.8526 364.905 43.1918 364.606C43.5309 364.307 43.9698 364.068 44.4686 363.888C44.9673 363.708 45.5658 363.629 46.2441 363.629C46.9823 363.629 47.6805 363.748 48.279 364.008C48.8975 364.247 49.3962 364.586 49.8152 364.985L49.2167 365.923L49.2366 365.943Z" fill="white"/>
<path d="M56.7179 363.669C57.5159 363.669 58.254 363.788 58.9124 364.068C59.5707 364.327 60.1293 364.706 60.6081 365.185C61.067 365.664 61.446 366.242 61.6854 366.94C61.9248 367.639 62.0645 368.397 62.0645 369.255C62.0645 370.112 61.9448 370.89 61.6854 371.589C61.4261 372.287 61.067 372.866 60.6081 373.344C60.1293 373.823 59.5707 374.202 58.9124 374.462C58.254 374.721 57.5159 374.861 56.7179 374.861C55.9199 374.861 55.1618 374.721 54.5034 374.462C53.8451 374.202 53.2665 373.823 52.8077 373.344C52.3488 372.866 51.9698 372.267 51.7104 371.589C51.4511 370.91 51.3314 370.132 51.3314 369.255C51.3314 368.377 51.4511 367.639 51.7104 366.94C51.9698 366.242 52.3289 365.664 52.8077 365.185C53.2865 364.706 53.8451 364.327 54.5034 364.068C55.1618 363.808 55.8999 363.669 56.7179 363.669ZM56.7179 372.826C57.6156 372.826 58.2939 372.526 58.7129 371.908C59.1318 371.289 59.3712 370.412 59.3712 369.235C59.3712 368.058 59.1518 367.18 58.7129 366.561C58.274 365.943 57.6156 365.644 56.7179 365.644C55.8201 365.644 55.1219 365.943 54.683 366.561C54.2441 367.18 54.0246 368.058 54.0246 369.235C54.0246 370.412 54.2441 371.289 54.683 371.888C55.1219 372.506 55.8002 372.806 56.7179 372.806V372.826Z" fill="white"/>
<path d="M71.84 366.122C71.84 366.122 71.6804 366.302 71.6205 366.362C71.5407 366.422 71.441 366.442 71.3013 366.442C71.1617 366.442 71.042 366.402 70.9023 366.322C70.7826 366.242 70.623 366.142 70.4435 366.043C70.2639 365.943 70.0644 365.843 69.8051 365.763C69.5657 365.684 69.2664 365.644 68.9073 365.644C68.4485 365.644 68.0495 365.723 67.7103 365.883C67.3712 366.043 67.0719 366.282 66.8525 366.601C66.6131 366.92 66.4535 367.28 66.3338 367.718C66.2141 368.157 66.1742 368.656 66.1742 369.215C66.1742 369.773 66.234 370.312 66.3537 370.751C66.4734 371.21 66.653 371.589 66.8924 371.888C67.1318 372.187 67.4111 372.427 67.7303 372.586C68.0694 372.746 68.4285 372.826 68.8475 372.826C69.2664 372.826 69.6056 372.766 69.8649 372.666C70.1243 372.566 70.3437 372.447 70.5233 372.327C70.7028 372.207 70.8624 372.088 70.9821 371.988C71.1218 371.888 71.2614 371.828 71.421 371.828C71.6405 371.828 71.8001 371.908 71.8998 372.068L72.6579 373.025C72.3786 373.364 72.0594 373.644 71.7203 373.883C71.3811 374.102 71.022 374.302 70.6629 374.442C70.3038 374.581 69.9248 374.681 69.5457 374.741C69.1667 374.801 68.7876 374.821 68.4086 374.821C67.7303 374.821 67.1118 374.701 66.5133 374.442C65.9148 374.182 65.3961 373.823 64.9572 373.344C64.5183 372.866 64.1592 372.287 63.8999 371.589C63.6405 370.891 63.5208 370.112 63.5208 369.215C63.5208 368.417 63.6405 367.679 63.86 367C64.0794 366.322 64.4186 365.723 64.8774 365.245C65.3363 364.766 65.8749 364.367 66.5333 364.068C67.1916 363.788 67.9497 363.649 68.7876 363.649C69.6255 363.649 70.3038 363.768 70.9223 364.048C71.5407 364.307 72.0794 364.686 72.5582 365.165L71.8799 366.122H71.84Z" fill="white"/>
<path d="M77.3262 360.676C77.3262 360.895 77.2863 361.115 77.1866 361.314C77.0868 361.514 76.9671 361.693 76.8275 361.833C76.6679 361.973 76.5083 362.093 76.2888 362.192C76.0694 362.292 75.8699 362.332 75.6305 362.332C75.3911 362.332 75.1916 362.292 74.9921 362.192C74.7926 362.093 74.613 361.993 74.4734 361.833C74.3337 361.693 74.214 361.514 74.1143 361.314C74.0145 361.115 73.9746 360.915 73.9746 360.676C73.9746 360.437 74.0145 360.217 74.1143 360.018C74.1941 359.818 74.3138 359.639 74.4734 359.499C74.613 359.359 74.7926 359.24 74.9921 359.14C75.1916 359.04 75.411 359 75.6305 359C75.8499 359 76.0893 359.04 76.2888 359.14C76.4883 359.24 76.6679 359.339 76.8275 359.499C76.9871 359.639 77.1068 359.818 77.1866 360.018C77.2863 360.217 77.3262 360.437 77.3262 360.676ZM76.9671 363.828V374.681H74.3537V363.828H76.9671Z" fill="white"/>
<path d="M79.3811 365.344C80.6379 364.207 82.1342 363.629 83.8898 363.629C84.5282 363.629 85.0868 363.728 85.5855 363.948C86.0843 364.147 86.5032 364.447 86.8623 364.806C87.2214 365.165 87.4608 365.624 87.6404 366.142C87.8199 366.661 87.9197 367.22 87.9197 367.838V374.681H86.7426C86.5032 374.681 86.3037 374.641 86.1641 374.561C86.0244 374.481 85.9247 374.342 85.8449 374.102L85.6055 373.324C85.3262 373.564 85.0668 373.783 84.8075 373.983C84.5481 374.162 84.2688 374.322 83.9895 374.461C83.7102 374.581 83.411 374.681 83.0918 374.761C82.7726 374.821 82.4135 374.86 82.0344 374.86C81.5756 374.86 81.1566 374.801 80.7576 374.681C80.3786 374.561 80.0394 374.382 79.7601 374.122C79.4808 373.863 79.2614 373.564 79.1018 373.205C78.9422 372.846 78.8624 372.407 78.8624 371.928C78.8624 371.649 78.9023 371.389 79.002 371.11C79.1018 370.831 79.2414 370.571 79.4609 370.332C79.6803 370.092 79.9397 369.853 80.2788 369.634C80.618 369.414 81.017 369.235 81.4958 369.055C81.9746 368.895 82.5332 368.756 83.1915 368.656C83.8299 368.556 84.5681 368.496 85.386 368.476V367.838C85.386 367.12 85.2264 366.581 84.9272 366.222C84.6279 365.863 84.1691 365.703 83.5905 365.703C83.1716 365.703 82.8125 365.743 82.5332 365.843C82.2539 365.943 82.0145 366.043 81.795 366.182C81.5756 366.322 81.396 366.422 81.2165 366.521C81.0369 366.621 80.8574 366.661 80.6379 366.661C80.4584 366.661 80.2988 366.621 80.1791 366.521C80.0594 366.422 79.9397 366.322 79.8798 366.182L79.421 365.344H79.3811ZM85.3661 370.053C84.608 370.092 83.9696 370.152 83.4708 370.252C82.9521 370.352 82.5531 370.472 82.2339 370.611C81.9147 370.751 81.6953 370.93 81.5756 371.13C81.4359 371.329 81.3761 371.549 81.3761 371.768C81.3761 372.227 81.5157 372.546 81.7751 372.746C82.0544 372.945 82.3935 373.045 82.8324 373.045C83.3711 373.045 83.8299 372.945 84.2289 372.746C84.6279 372.546 85.007 372.267 85.386 371.868V370.033L85.3661 370.053Z" fill="white"/>
<path d="M98.9121 373.065C98.4333 373.624 97.8946 374.043 97.2961 374.302C96.6976 374.561 96.0792 374.721 95.4208 374.801L95.2812 375.339C95.9395 375.499 96.3984 375.698 96.6777 375.978C96.937 376.237 97.0767 376.556 97.0767 376.915C97.0767 377.155 97.0168 377.374 96.8971 377.554C96.7774 377.733 96.5979 377.913 96.3784 378.033C96.159 378.172 95.8797 378.272 95.5605 378.332C95.2413 378.412 94.9021 378.432 94.5231 378.432C94.2238 378.432 93.9645 378.432 93.7051 378.372C93.4458 378.332 93.2064 378.272 92.967 378.192L93.2064 377.374C93.2463 377.215 93.346 377.135 93.5056 377.135C93.6054 377.135 93.7051 377.155 93.8248 377.215C93.9445 377.275 94.1241 377.294 94.3435 377.294C94.563 377.294 94.7425 377.255 94.8622 377.155C94.9819 377.075 95.0418 376.955 95.0418 376.836C95.0418 376.636 94.9221 376.477 94.6627 376.397C94.4034 376.317 94.0243 376.217 93.4857 376.157L93.9445 374.781C93.346 374.701 92.8074 374.521 92.2887 374.222C91.7899 373.943 91.3311 373.564 90.972 373.085C90.5929 372.606 90.3136 372.048 90.0942 371.409C89.8747 370.771 89.775 370.033 89.775 369.215C89.775 368.397 89.8947 367.679 90.1141 367C90.3336 366.322 90.6727 365.723 91.1316 365.245C91.5904 364.766 92.1291 364.367 92.7874 364.068C93.4458 363.788 94.2039 363.649 95.0418 363.649C95.8797 363.649 96.558 363.768 97.1764 364.048C97.7949 364.307 98.3335 364.686 98.8123 365.165L98.134 366.122C98.134 366.122 97.9744 366.302 97.9146 366.362C97.8348 366.422 97.735 366.442 97.5954 366.442C97.4557 366.442 97.336 366.402 97.1964 366.322C97.0767 366.242 96.9171 366.142 96.7375 366.043C96.558 365.943 96.3585 365.843 96.0991 365.763C95.8597 365.684 95.5605 365.644 95.2014 365.644C94.7425 365.644 94.3435 365.723 94.0044 365.883C93.6652 366.043 93.366 366.282 93.1465 366.601C92.9071 366.92 92.7475 367.28 92.6278 367.718C92.5081 368.157 92.4682 368.656 92.4682 369.215C92.4682 369.773 92.5281 370.312 92.6478 370.751C92.7675 371.21 92.947 371.589 93.1864 371.888C93.4258 372.187 93.7051 372.427 94.0243 372.586C94.3635 372.746 94.7226 372.826 95.1415 372.826C95.5605 372.826 95.8996 372.766 96.159 372.666C96.4183 372.566 96.6378 372.447 96.8173 372.327C96.9969 372.207 97.1565 372.088 97.2762 371.988C97.4158 371.888 97.5555 371.828 97.7151 371.828C97.9345 371.828 98.0941 371.908 98.1939 372.068L98.952 373.025L98.9121 373.065Z" fill="white"/>
<path d="M100.309 365.344C101.565 364.207 103.062 363.629 104.817 363.629C105.456 363.629 106.014 363.728 106.513 363.948C107.012 364.147 107.431 364.447 107.79 364.806C108.149 365.165 108.388 365.624 108.568 366.142C108.747 366.661 108.847 367.22 108.847 367.838V374.681H107.67C107.431 374.681 107.231 374.641 107.092 374.561C106.952 374.482 106.852 374.342 106.772 374.102L106.533 373.324C106.254 373.564 105.994 373.783 105.735 373.983C105.476 374.162 105.196 374.322 104.917 374.462C104.638 374.581 104.339 374.681 104.019 374.761C103.7 374.821 103.341 374.861 102.962 374.861C102.503 374.861 102.084 374.801 101.685 374.681C101.306 374.561 100.967 374.382 100.688 374.122C100.408 373.863 100.189 373.564 100.029 373.205C99.8697 372.846 99.7899 372.407 99.7899 371.928C99.7899 371.649 99.8298 371.389 99.9296 371.11C100.029 370.831 100.169 370.571 100.388 370.332C100.608 370.093 100.867 369.853 101.206 369.634C101.546 369.414 101.945 369.235 102.423 369.055C102.902 368.896 103.461 368.756 104.119 368.656C104.757 368.556 105.496 368.496 106.314 368.477V367.838C106.314 367.12 106.154 366.581 105.855 366.222C105.555 365.863 105.097 365.703 104.518 365.703C104.099 365.703 103.74 365.743 103.461 365.843C103.181 365.943 102.942 366.043 102.723 366.182C102.503 366.322 102.324 366.422 102.144 366.521C101.964 366.621 101.785 366.661 101.565 366.661C101.386 366.661 101.226 366.621 101.107 366.521C100.987 366.422 100.867 366.322 100.807 366.182L100.349 365.344H100.309ZM105.715 360.317C105.935 360.317 106.094 360.257 106.214 360.137C106.334 360.018 106.393 359.818 106.393 359.499H107.969C107.969 359.898 107.91 360.257 107.81 360.576C107.71 360.896 107.55 361.175 107.351 361.394C107.151 361.614 106.932 361.793 106.673 361.913C106.413 362.033 106.114 362.093 105.795 362.093C105.536 362.093 105.296 362.053 105.077 361.953C104.857 361.853 104.658 361.753 104.458 361.654C104.259 361.554 104.099 361.454 103.92 361.354C103.76 361.255 103.6 361.215 103.461 361.215C103.261 361.215 103.102 361.275 102.982 361.394C102.862 361.514 102.802 361.733 102.802 362.033H101.186C101.186 361.634 101.246 361.275 101.346 360.955C101.446 360.636 101.605 360.357 101.805 360.137C102.004 359.918 102.224 359.738 102.503 359.599C102.762 359.479 103.062 359.399 103.361 359.399C103.62 359.399 103.86 359.439 104.079 359.539C104.299 359.639 104.498 359.738 104.698 359.838C104.897 359.938 105.057 360.038 105.216 360.137C105.376 360.237 105.536 360.277 105.675 360.277L105.715 360.317ZM106.294 370.053C105.536 370.093 104.897 370.152 104.398 370.252C103.88 370.352 103.481 370.472 103.161 370.611C102.842 370.751 102.623 370.93 102.503 371.13C102.363 371.329 102.304 371.549 102.304 371.768C102.304 372.227 102.443 372.546 102.703 372.746C102.982 372.945 103.321 373.045 103.76 373.045C104.299 373.045 104.757 372.945 105.156 372.746C105.555 372.546 105.935 372.267 106.314 371.868V370.033L106.294 370.053Z" fill="white"/>
<path d="M116.089 363.669C116.887 363.669 117.625 363.788 118.284 364.068C118.942 364.327 119.501 364.706 119.979 365.185C120.438 365.664 120.817 366.242 121.057 366.94C121.296 367.639 121.436 368.397 121.436 369.255C121.436 370.112 121.316 370.89 121.057 371.589C120.797 372.287 120.438 372.866 119.979 373.344C119.501 373.823 118.942 374.202 118.284 374.462C117.625 374.721 116.887 374.861 116.089 374.861C115.291 374.861 114.533 374.721 113.875 374.462C113.216 374.202 112.638 373.823 112.179 373.344C111.72 372.866 111.341 372.267 111.082 371.589C110.822 370.91 110.703 370.132 110.703 369.255C110.703 368.377 110.822 367.639 111.082 366.94C111.341 366.242 111.7 365.664 112.179 365.185C112.658 364.706 113.216 364.327 113.875 364.068C114.533 363.808 115.271 363.669 116.089 363.669ZM116.089 372.826C116.987 372.826 117.665 372.526 118.084 371.908C118.503 371.289 118.742 370.412 118.742 369.235C118.742 368.058 118.523 367.18 118.084 366.561C117.645 365.943 116.987 365.644 116.089 365.644C115.191 365.644 114.493 365.943 114.054 366.561C113.615 367.18 113.396 368.058 113.396 369.235C113.396 370.412 113.615 371.289 114.054 371.888C114.493 372.506 115.171 372.806 116.089 372.806V372.826Z" fill="white"/>
<path d="M137.994 358.98V374.681H136.398C136.059 374.681 135.84 374.521 135.74 374.202L135.52 373.165C135.081 373.664 134.583 374.063 134.004 374.382C133.446 374.701 132.767 374.841 132.029 374.841C131.431 374.841 130.892 374.721 130.393 374.462C129.894 374.222 129.476 373.863 129.116 373.384C128.757 372.925 128.478 372.327 128.298 371.649C128.099 370.95 127.999 370.172 127.999 369.275C127.999 368.477 128.099 367.718 128.318 367.04C128.538 366.342 128.857 365.743 129.256 365.245C129.655 364.746 130.154 364.347 130.732 364.048C131.311 363.768 131.949 363.609 132.648 363.609C133.246 363.609 133.765 363.708 134.204 363.888C134.643 364.088 135.022 364.327 135.361 364.666V358.94H137.974L137.994 358.98ZM135.401 366.601C135.101 366.242 134.782 365.983 134.443 365.843C134.084 365.703 133.725 365.624 133.326 365.624C132.927 365.624 132.568 365.703 132.249 365.843C131.929 365.983 131.65 366.222 131.431 366.521C131.211 366.821 131.032 367.2 130.912 367.659C130.792 368.117 130.732 368.656 130.732 369.294C130.732 369.933 130.792 370.472 130.892 370.91C130.992 371.349 131.131 371.708 131.331 371.988C131.53 372.267 131.75 372.467 132.029 372.586C132.308 372.706 132.608 372.766 132.947 372.766C133.485 372.766 133.944 372.646 134.323 372.427C134.702 372.207 135.062 371.888 135.401 371.469V366.601Z" fill="white"/>
<path d="M142.583 369.594C142.623 370.152 142.722 370.631 142.882 371.03C143.042 371.429 143.241 371.768 143.5 372.028C143.76 372.287 144.059 372.486 144.398 372.626C144.757 372.746 145.136 372.826 145.555 372.826C145.974 372.826 146.333 372.786 146.652 372.686C146.952 372.586 147.231 372.486 147.45 372.367C147.67 372.247 147.889 372.147 148.049 372.048C148.228 371.948 148.388 371.908 148.548 371.908C148.767 371.908 148.927 371.988 149.026 372.147L149.785 373.105C149.505 373.444 149.166 373.723 148.807 373.963C148.448 374.202 148.069 374.382 147.69 374.521C147.291 374.661 146.892 374.761 146.493 374.821C146.094 374.88 145.695 374.9 145.316 374.9C144.558 374.9 143.859 374.781 143.221 374.521C142.583 374.262 142.004 373.903 141.525 373.404C141.047 372.905 140.667 372.307 140.388 371.589C140.109 370.87 139.969 370.033 139.969 369.075C139.969 368.337 140.089 367.639 140.328 366.98C140.568 366.322 140.907 365.763 141.366 365.284C141.805 364.806 142.363 364.427 143.002 364.147C143.64 363.868 144.378 363.728 145.176 363.728C145.854 363.728 146.493 363.828 147.071 364.048C147.65 364.267 148.149 364.586 148.568 365.005C148.987 365.424 149.306 365.943 149.545 366.541C149.785 367.16 149.904 367.838 149.904 368.636C149.904 369.035 149.864 369.294 149.785 369.434C149.705 369.574 149.545 369.634 149.306 369.634H142.603L142.583 369.594ZM147.57 368.018C147.57 367.678 147.53 367.359 147.431 367.06C147.331 366.761 147.191 366.501 147.012 366.282C146.812 366.063 146.573 365.883 146.293 365.743C145.994 365.624 145.655 365.544 145.276 365.544C144.518 365.544 143.919 365.763 143.5 366.182C143.061 366.621 142.782 367.22 142.662 368.018H147.59H147.57Z" fill="white"/>
<path d="M169.814 374.681H167.62C167.38 374.681 167.181 374.621 167.021 374.501C166.862 374.382 166.742 374.222 166.662 374.043L165.525 370.93H159.201L158.064 374.043C158.004 374.202 157.904 374.362 157.745 374.482C157.585 374.621 157.386 374.681 157.146 374.681H154.932L160.957 359.399H163.849L169.854 374.681H169.814ZM164.787 368.915L162.932 363.828C162.832 363.609 162.752 363.329 162.652 363.03C162.553 362.711 162.453 362.392 162.353 362.033C162.253 362.392 162.174 362.731 162.074 363.05C161.974 363.369 161.874 363.629 161.794 363.868L159.939 368.935H164.807L164.787 368.915Z" fill="white"/>
<path d="M173.605 358.98V374.681H170.991V358.98H173.605Z" fill="white"/>
<path d="M179.291 360.676C179.291 360.895 179.251 361.115 179.151 361.314C179.051 361.514 178.932 361.693 178.792 361.833C178.632 361.973 178.473 362.093 178.253 362.192C178.034 362.292 177.834 362.332 177.595 362.332C177.356 362.332 177.156 362.292 176.957 362.192C176.757 362.093 176.577 361.993 176.438 361.833C176.298 361.693 176.178 361.514 176.079 361.314C175.979 361.115 175.939 360.915 175.939 360.676C175.939 360.437 175.979 360.217 176.079 360.018C176.159 359.818 176.278 359.639 176.438 359.499C176.577 359.359 176.757 359.24 176.957 359.14C177.156 359.04 177.375 359 177.595 359C177.814 359 178.054 359.04 178.253 359.14C178.453 359.24 178.632 359.339 178.792 359.499C178.952 359.639 179.071 359.818 179.151 360.018C179.251 360.217 179.291 360.437 179.291 360.676ZM178.932 363.828V374.681H176.318V363.828H178.932Z" fill="white"/>
<path d="M181.585 374.681V363.828H183.181C183.52 363.828 183.74 363.988 183.839 364.307L183.999 365.105C184.198 364.886 184.398 364.706 184.597 364.526C184.797 364.347 185.036 364.207 185.256 364.068C185.495 363.948 185.754 363.848 186.014 363.768C186.293 363.689 186.592 363.649 186.912 363.649C187.59 363.649 188.148 363.828 188.607 364.207C189.066 364.586 189.385 365.065 189.605 365.684C189.764 365.324 189.984 365.025 190.243 364.766C190.503 364.507 190.782 364.307 191.081 364.127C191.38 363.948 191.7 363.848 192.039 363.768C192.378 363.689 192.717 363.649 193.076 363.649C193.675 363.649 194.213 363.748 194.672 363.928C195.131 364.108 195.53 364.387 195.849 364.726C196.168 365.065 196.408 365.504 196.567 366.023C196.727 366.521 196.807 367.12 196.807 367.758V374.661H194.193V367.758C194.193 367.06 194.034 366.541 193.734 366.202C193.435 365.863 192.996 365.684 192.398 365.684C192.138 365.684 191.879 365.723 191.66 365.823C191.42 365.923 191.221 366.043 191.061 366.222C190.882 366.402 190.762 366.621 190.662 366.881C190.562 367.14 190.523 367.439 190.523 367.778V374.681H187.909V367.778C187.909 367.06 187.769 366.521 187.47 366.202C187.171 365.883 186.752 365.704 186.193 365.704C185.814 365.704 185.455 365.803 185.136 365.983C184.817 366.162 184.498 366.422 184.218 366.741V374.681H181.605H181.585Z" fill="white"/>
<path d="M201.295 369.594C201.335 370.152 201.435 370.631 201.595 371.03C201.754 371.429 201.954 371.768 202.213 372.028C202.473 372.287 202.772 372.486 203.111 372.626C203.45 372.746 203.849 372.826 204.268 372.826C204.687 372.826 205.046 372.786 205.365 372.686C205.665 372.586 205.944 372.486 206.163 372.367C206.383 372.247 206.602 372.147 206.762 372.048C206.941 371.948 207.101 371.908 207.261 371.908C207.48 371.908 207.64 371.988 207.739 372.147L208.497 373.105C208.198 373.444 207.879 373.723 207.52 373.963C207.161 374.202 206.782 374.382 206.403 374.521C206.024 374.661 205.605 374.761 205.206 374.821C204.807 374.88 204.408 374.9 204.029 374.9C203.271 374.9 202.572 374.781 201.934 374.521C201.295 374.262 200.717 373.903 200.238 373.404C199.759 372.905 199.38 372.307 199.101 371.589C198.822 370.87 198.682 370.033 198.682 369.075C198.682 368.337 198.802 367.639 199.041 366.98C199.281 366.322 199.62 365.763 200.079 365.284C200.517 364.806 201.076 364.427 201.714 364.147C202.353 363.868 203.091 363.728 203.889 363.728C204.567 363.728 205.206 363.828 205.784 364.048C206.363 364.267 206.862 364.586 207.28 365.005C207.699 365.424 208.019 365.943 208.258 366.541C208.497 367.16 208.617 367.838 208.617 368.636C208.617 369.035 208.577 369.294 208.497 369.434C208.418 369.574 208.258 369.634 208.019 369.634H201.315L201.295 369.594ZM206.283 368.018C206.283 367.678 206.243 367.359 206.143 367.06C206.044 366.761 205.904 366.501 205.704 366.282C205.505 366.063 205.266 365.883 204.986 365.743C204.687 365.624 204.348 365.544 203.969 365.544C203.211 365.544 202.612 365.763 202.193 366.182C201.754 366.621 201.475 367.22 201.355 368.018H206.283Z" fill="white"/>
<path d="M213.026 365.165C213.246 364.945 213.485 364.746 213.724 364.566C213.964 364.387 214.223 364.227 214.502 364.088C214.782 363.968 215.061 363.848 215.38 363.788C215.699 363.709 216.019 363.669 216.398 363.669C216.996 363.669 217.515 363.768 217.974 363.968C218.433 364.167 218.812 364.447 219.111 364.806C219.41 365.165 219.649 365.604 219.809 366.102C219.969 366.601 220.048 367.16 220.048 367.758V374.661H217.435V367.758C217.435 367.1 217.275 366.581 216.976 366.222C216.677 365.863 216.218 365.684 215.6 365.684C215.141 365.684 214.722 365.783 214.323 365.983C213.924 366.182 213.565 366.462 213.206 366.821V374.661H210.592V363.808H212.188C212.527 363.808 212.747 363.968 212.847 364.287L213.026 365.145V365.165Z" fill="white"/>
<path d="M225.974 374.841C225.036 374.841 224.298 374.581 223.799 374.043C223.3 373.504 223.041 372.766 223.041 371.848V365.783H221.924C221.784 365.783 221.664 365.743 221.565 365.644C221.465 365.544 221.425 365.424 221.425 365.225V364.187L223.161 363.908L223.719 360.955C223.759 360.816 223.819 360.696 223.919 360.636C224.019 360.556 224.138 360.516 224.298 360.516H225.654V363.928H228.547V365.783H225.654V371.669C225.654 372.008 225.734 372.267 225.894 372.467C226.053 372.666 226.293 372.746 226.572 372.746C226.732 372.746 226.871 372.746 226.971 372.686C227.071 372.646 227.171 372.606 227.25 372.566C227.33 372.526 227.41 372.486 227.47 372.447C227.53 372.407 227.59 372.387 227.669 372.387C227.749 372.387 227.809 372.387 227.869 372.447C227.929 372.506 227.969 372.546 228.029 372.626L228.807 373.903C228.428 374.222 227.989 374.462 227.49 374.621C226.991 374.781 226.492 374.861 225.954 374.861L225.974 374.841Z" fill="white"/>
<path d="M234.951 363.669C235.749 363.669 236.487 363.788 237.146 364.068C237.804 364.327 238.363 364.706 238.841 365.185C239.3 365.664 239.679 366.242 239.919 366.94C240.158 367.639 240.298 368.397 240.298 369.255C240.298 370.112 240.178 370.89 239.919 371.589C239.659 372.287 239.3 372.866 238.841 373.344C238.363 373.823 237.804 374.202 237.146 374.462C236.487 374.721 235.749 374.861 234.951 374.861C234.153 374.861 233.395 374.721 232.737 374.462C232.078 374.202 231.5 373.823 231.041 373.344C230.582 372.866 230.203 372.267 229.944 371.589C229.684 370.89 229.565 370.132 229.565 369.255C229.565 368.377 229.684 367.639 229.944 366.94C230.203 366.242 230.562 365.664 231.041 365.185C231.52 364.706 232.078 364.327 232.737 364.068C233.395 363.808 234.133 363.669 234.951 363.669ZM234.951 372.826C235.849 372.826 236.527 372.526 236.946 371.908C237.385 371.309 237.605 370.412 237.605 369.235C237.605 368.058 237.385 367.18 236.946 366.561C236.507 365.943 235.849 365.644 234.951 365.644C234.053 365.644 233.355 365.943 232.916 366.561C232.477 367.18 232.258 368.058 232.258 369.235C232.258 370.412 232.477 371.289 232.916 371.888C233.355 372.506 234.033 372.806 234.951 372.806V372.826Z" fill="white"/>
<path d="M248.896 365.943C248.816 366.063 248.757 366.142 248.677 366.182C248.597 366.222 248.497 366.242 248.377 366.242C248.258 366.242 248.118 366.202 247.978 366.142C247.839 366.083 247.659 365.983 247.48 365.903C247.28 365.823 247.081 365.743 246.821 365.664C246.562 365.584 246.283 365.564 245.964 365.564C245.445 365.564 245.046 365.664 244.747 365.883C244.447 366.102 244.308 366.382 244.308 366.741C244.308 366.98 244.387 367.16 244.527 367.319C244.687 367.479 244.886 367.619 245.126 367.738C245.385 367.858 245.664 367.958 245.983 368.058C246.303 368.157 246.622 368.257 246.941 368.377C247.26 368.496 247.599 368.616 247.899 368.756C248.198 368.895 248.497 369.075 248.757 369.314C249.016 369.534 249.215 369.793 249.355 370.112C249.515 370.432 249.574 370.791 249.574 371.23C249.574 371.748 249.475 372.227 249.295 372.666C249.116 373.105 248.836 373.484 248.457 373.803C248.098 374.122 247.639 374.382 247.101 374.561C246.562 374.741 245.944 374.821 245.225 374.821C244.846 374.821 244.487 374.781 244.128 374.721C243.769 374.661 243.43 374.561 243.111 374.442C242.791 374.322 242.472 374.182 242.193 374.023C241.914 373.863 241.674 373.683 241.455 373.504L242.053 372.506C242.133 372.387 242.213 372.287 242.333 372.227C242.432 372.167 242.572 372.127 242.732 372.127C242.891 372.127 243.051 372.167 243.19 372.267C243.33 372.367 243.51 372.467 243.689 372.566C243.869 372.666 244.108 372.766 244.368 372.865C244.627 372.965 244.946 373.005 245.345 373.005C245.664 373.005 245.924 372.965 246.143 372.885C246.363 372.806 246.542 372.706 246.702 372.586C246.841 372.466 246.961 372.327 247.021 372.167C247.081 372.008 247.121 371.848 247.121 371.669C247.121 371.409 247.041 371.21 246.901 371.05C246.742 370.89 246.542 370.751 246.303 370.631C246.063 370.511 245.764 370.412 245.445 370.312C245.126 370.212 244.786 370.112 244.467 369.993C244.148 369.873 243.809 369.753 243.49 369.594C243.171 369.434 242.891 369.255 242.632 369.015C242.373 368.776 242.173 368.496 242.033 368.157C241.874 367.818 241.814 367.419 241.814 366.94C241.814 366.501 241.894 366.082 242.073 365.664C242.253 365.265 242.512 364.905 242.851 364.606C243.19 364.307 243.629 364.068 244.128 363.888C244.627 363.708 245.225 363.629 245.904 363.629C246.642 363.629 247.34 363.748 247.939 364.008C248.557 364.247 249.056 364.586 249.475 364.985L248.876 365.923L248.896 365.943Z" fill="white"/>
<path d="M258.732 369.594C258.771 370.152 258.871 370.631 259.031 371.03C259.19 371.429 259.39 371.768 259.649 372.028C259.909 372.287 260.208 372.486 260.547 372.626C260.886 372.746 261.285 372.826 261.704 372.826C262.123 372.826 262.482 372.786 262.801 372.686C263.101 372.586 263.38 372.486 263.599 372.367C263.819 372.247 264.038 372.147 264.198 372.048C264.377 371.948 264.537 371.908 264.697 371.908C264.916 371.908 265.076 371.988 265.175 372.147L265.933 373.105C265.634 373.444 265.315 373.723 264.956 373.963C264.597 374.202 264.218 374.382 263.839 374.521C263.46 374.661 263.041 374.761 262.642 374.821C262.243 374.88 261.844 374.9 261.465 374.9C260.707 374.9 260.008 374.781 259.37 374.521C258.712 374.262 258.153 373.903 257.674 373.404C257.195 372.905 256.816 372.307 256.537 371.589C256.258 370.87 256.118 370.033 256.118 369.075C256.118 368.337 256.238 367.639 256.477 366.98C256.717 366.322 257.056 365.763 257.515 365.284C257.953 364.806 258.512 364.427 259.15 364.147C259.789 363.868 260.527 363.728 261.325 363.728C262.003 363.728 262.642 363.828 263.22 364.048C263.799 364.267 264.298 364.586 264.717 365.005C265.135 365.424 265.455 365.943 265.694 366.541C265.933 367.16 266.053 367.838 266.053 368.636C266.053 369.035 266.013 369.294 265.933 369.434C265.854 369.574 265.694 369.634 265.455 369.634H258.751L258.732 369.594ZM263.699 368.018C263.699 367.678 263.659 367.359 263.559 367.06C263.46 366.761 263.32 366.501 263.121 366.282C262.921 366.063 262.682 365.883 262.402 365.743C262.103 365.624 261.764 365.544 261.385 365.544C260.627 365.544 260.028 365.763 259.609 366.182C259.17 366.621 258.891 367.22 258.771 368.018H263.699Z" fill="white"/>
<path d="M284.048 371.07C284.208 371.07 284.347 371.13 284.467 371.25L285.584 372.467C284.966 373.245 284.208 373.823 283.29 374.222C282.392 374.621 281.295 374.841 280.038 374.841C278.901 374.841 277.884 374.641 276.986 374.262C276.088 373.883 275.31 373.344 274.672 372.646C274.033 371.948 273.534 371.13 273.195 370.172C272.856 369.215 272.677 368.157 272.677 367.04C272.677 365.923 272.856 364.846 273.235 363.888C273.614 362.93 274.113 362.112 274.791 361.414C275.47 360.716 276.248 360.177 277.185 359.798C278.103 359.419 279.12 359.22 280.258 359.22C281.395 359.22 282.352 359.399 283.23 359.758C284.088 360.117 284.826 360.596 285.425 361.195L284.467 362.511C284.467 362.511 284.347 362.671 284.248 362.731C284.148 362.791 284.028 362.831 283.888 362.831C283.789 362.831 283.669 362.791 283.569 362.731C283.45 362.671 283.33 362.591 283.19 362.511C283.051 362.432 282.911 362.332 282.731 362.212C282.552 362.112 282.352 362.013 282.113 361.913C281.874 361.813 281.614 361.753 281.295 361.694C280.996 361.634 280.637 361.614 280.238 361.614C279.559 361.614 278.921 361.733 278.362 361.973C277.804 362.212 277.305 362.571 276.906 363.03C276.507 363.489 276.188 364.048 275.948 364.726C275.729 365.384 275.609 366.142 275.609 367C275.609 367.858 275.729 368.616 275.968 369.294C276.208 369.973 276.547 370.531 276.966 370.99C277.385 371.449 277.864 371.808 278.442 372.048C279.021 372.287 279.619 372.407 280.258 372.407C280.637 372.407 280.996 372.387 281.315 372.347C281.634 372.307 281.913 372.247 282.173 372.147C282.432 372.048 282.692 371.928 282.931 371.788C283.17 371.649 283.41 371.469 283.629 371.25C283.709 371.19 283.769 371.13 283.849 371.09C283.928 371.05 284.008 371.03 284.088 371.03L284.048 371.07Z" fill="white"/>
<path d="M291.709 363.669C292.507 363.669 293.245 363.788 293.903 364.068C294.562 364.327 295.12 364.706 295.599 365.185C296.058 365.664 296.437 366.242 296.676 366.94C296.916 367.639 297.055 368.397 297.055 369.255C297.055 370.112 296.936 370.89 296.676 371.589C296.417 372.287 296.058 372.866 295.599 373.344C295.12 373.823 294.562 374.202 293.903 374.462C293.245 374.721 292.507 374.861 291.709 374.861C290.911 374.861 290.153 374.721 289.494 374.462C288.836 374.202 288.258 373.823 287.799 373.344C287.34 372.866 286.961 372.267 286.701 371.589C286.442 370.89 286.322 370.132 286.322 369.255C286.322 368.377 286.442 367.639 286.701 366.94C286.961 366.242 287.32 365.664 287.799 365.185C288.277 364.706 288.836 364.327 289.494 364.068C290.153 363.808 290.891 363.669 291.709 363.669ZM291.709 372.826C292.607 372.826 293.285 372.526 293.704 371.908C294.143 371.309 294.362 370.412 294.362 369.235C294.362 368.058 294.143 367.18 293.704 366.561C293.265 365.943 292.607 365.644 291.709 365.644C290.811 365.644 290.113 365.943 289.674 366.561C289.235 367.18 289.016 368.058 289.016 369.235C289.016 370.412 289.235 371.289 289.674 371.888C290.113 372.506 290.791 372.806 291.709 372.806V372.826Z" fill="white"/>
<path d="M301.504 365.165C301.724 364.945 301.963 364.746 302.203 364.566C302.442 364.387 302.701 364.227 302.981 364.088C303.26 363.968 303.539 363.848 303.858 363.788C304.178 363.709 304.497 363.669 304.876 363.669C305.474 363.669 305.993 363.768 306.452 363.968C306.911 364.167 307.29 364.447 307.589 364.806C307.888 365.165 308.128 365.604 308.287 366.102C308.447 366.601 308.527 367.16 308.527 367.758V374.661H305.913V367.758C305.913 367.1 305.754 366.581 305.454 366.222C305.155 365.863 304.696 365.684 304.078 365.684C303.619 365.684 303.2 365.783 302.801 365.983C302.402 366.182 302.043 366.462 301.684 366.821V374.661H299.07V363.808H300.666C301.006 363.808 301.225 363.968 301.325 364.287L301.504 365.145V365.165Z" fill="white"/>
<path d="M320.497 364.207V365.185C320.497 365.504 320.317 365.683 319.938 365.763L318.961 365.943C319.1 366.322 319.18 366.721 319.18 367.16C319.18 367.698 319.08 368.177 318.861 368.616C318.641 369.055 318.342 369.414 317.963 369.713C317.584 370.013 317.125 370.252 316.607 370.412C316.088 370.571 315.529 370.651 314.931 370.651C314.711 370.651 314.512 370.651 314.312 370.611C314.113 370.591 313.913 370.571 313.734 370.531C313.395 370.731 313.235 370.97 313.235 371.21C313.235 371.429 313.335 371.589 313.534 371.688C313.734 371.788 313.993 371.868 314.332 371.908C314.671 371.948 315.05 371.968 315.469 371.988C315.888 371.988 316.327 372.028 316.766 372.048C317.205 372.068 317.644 372.147 318.063 372.227C318.482 372.307 318.861 372.447 319.2 372.646C319.539 372.846 319.799 373.105 319.998 373.424C320.198 373.743 320.297 374.182 320.297 374.681C320.297 375.16 320.178 375.619 319.938 376.077C319.699 376.536 319.36 376.935 318.921 377.274C318.482 377.634 317.923 377.913 317.265 378.132C316.607 378.352 315.868 378.451 315.03 378.451C314.193 378.451 313.494 378.372 312.896 378.212C312.297 378.052 311.779 377.833 311.38 377.574C310.981 377.314 310.681 376.995 310.482 376.656C310.282 376.317 310.183 375.958 310.183 375.579C310.183 375.08 310.342 374.641 310.641 374.302C310.941 373.963 311.38 373.683 311.898 373.484C311.619 373.344 311.38 373.145 311.22 372.885C311.06 372.646 310.961 372.307 310.961 371.908C310.961 371.748 310.981 371.569 311.04 371.409C311.1 371.23 311.18 371.07 311.3 370.89C311.42 370.731 311.559 370.571 311.739 370.412C311.918 370.252 312.118 370.132 312.357 370.013C311.819 369.713 311.38 369.314 311.06 368.836C310.741 368.337 310.582 367.758 310.582 367.1C310.582 366.561 310.681 366.082 310.901 365.644C311.12 365.205 311.42 364.846 311.799 364.526C312.178 364.227 312.636 363.988 313.155 363.828C313.674 363.669 314.252 363.589 314.871 363.589C315.33 363.589 315.769 363.629 316.188 363.728C316.587 363.828 316.966 363.968 317.305 364.147H320.417L320.497 364.207ZM317.903 375.16C317.903 374.94 317.843 374.781 317.704 374.641C317.584 374.501 317.405 374.402 317.185 374.322C316.966 374.242 316.706 374.202 316.427 374.162C316.128 374.122 315.828 374.102 315.489 374.082C315.17 374.082 314.831 374.043 314.472 374.043C314.113 374.043 313.794 374.003 313.454 373.963C313.175 374.122 312.936 374.322 312.756 374.541C312.577 374.761 312.477 375.02 312.477 375.299C312.477 375.499 312.517 375.658 312.617 375.838C312.716 375.998 312.856 376.137 313.075 376.257C313.295 376.377 313.554 376.476 313.893 376.536C314.232 376.596 314.631 376.636 315.11 376.636C315.589 376.636 316.008 376.596 316.367 376.516C316.726 376.437 317.006 376.337 317.245 376.217C317.464 376.077 317.644 375.938 317.744 375.758C317.843 375.579 317.903 375.379 317.903 375.18V375.16ZM314.951 368.995C315.27 368.995 315.549 368.955 315.789 368.856C316.028 368.776 316.227 368.656 316.387 368.496C316.547 368.337 316.666 368.157 316.746 367.938C316.826 367.718 316.866 367.479 316.866 367.22C316.866 366.681 316.706 366.262 316.387 365.943C316.068 365.624 315.589 365.464 314.951 365.464C314.312 365.464 313.833 365.624 313.514 365.943C313.195 366.262 313.035 366.681 313.035 367.22C313.035 367.479 313.075 367.718 313.155 367.938C313.235 368.157 313.355 368.337 313.514 368.496C313.674 368.656 313.873 368.776 314.113 368.875C314.352 368.955 314.631 369.015 314.951 369.015V368.995Z" fill="white"/>
<path d="M323.968 369.594C324.008 370.152 324.108 370.631 324.267 371.03C324.427 371.429 324.626 371.768 324.886 372.028C325.145 372.287 325.444 372.486 325.784 372.626C326.123 372.746 326.522 372.826 326.941 372.826C327.36 372.826 327.719 372.786 328.038 372.686C328.337 372.586 328.616 372.486 328.836 372.367C329.055 372.247 329.275 372.147 329.434 372.048C329.614 371.948 329.774 371.908 329.933 371.908C330.153 371.908 330.312 371.988 330.412 372.147L331.17 373.105C330.871 373.444 330.552 373.723 330.192 373.963C329.833 374.202 329.454 374.382 329.075 374.521C328.696 374.661 328.277 374.761 327.878 374.821C327.479 374.88 327.08 374.9 326.701 374.9C325.943 374.9 325.245 374.781 324.606 374.521C323.948 374.262 323.39 373.903 322.911 373.404C322.432 372.905 322.053 372.307 321.774 371.589C321.494 370.87 321.355 370.033 321.355 369.075C321.355 368.337 321.474 367.639 321.714 366.98C321.953 366.322 322.292 365.763 322.751 365.284C323.19 364.806 323.749 364.427 324.387 364.147C325.025 363.868 325.764 363.728 326.562 363.728C327.24 363.728 327.878 363.828 328.457 364.048C329.035 364.267 329.534 364.586 329.953 365.005C330.372 365.424 330.691 365.943 330.931 366.541C331.17 367.16 331.29 367.838 331.29 368.636C331.29 369.035 331.25 369.294 331.17 369.434C331.09 369.574 330.931 369.634 330.691 369.634H323.988L323.968 369.594ZM328.936 368.018C328.936 367.678 328.896 367.359 328.796 367.06C328.696 366.761 328.557 366.501 328.357 366.282C328.158 366.063 327.918 365.883 327.639 365.743C327.34 365.624 327 365.544 326.621 365.544C325.863 365.544 325.265 365.763 324.846 366.182C324.407 366.621 324.128 367.22 324.008 368.018H328.936Z" fill="white"/>
<path d="M335.898 358.98V374.681H333.285V358.98H335.898Z" fill="white"/>
<path d="M338.252 365.344C339.509 364.207 341.005 363.629 342.761 363.629C343.399 363.629 343.958 363.728 344.457 363.948C344.955 364.147 345.374 364.447 345.734 364.806C346.073 365.185 346.332 365.624 346.512 366.142C346.691 366.661 346.771 367.22 346.771 367.838V374.681H345.594C345.354 374.681 345.155 374.641 345.015 374.561C344.876 374.481 344.776 374.342 344.696 374.102L344.457 373.324C344.177 373.564 343.918 373.783 343.659 373.983C343.399 374.162 343.12 374.322 342.841 374.461C342.561 374.581 342.262 374.681 341.943 374.761C341.624 374.821 341.265 374.86 340.886 374.86C340.427 374.86 340.008 374.801 339.609 374.681C339.21 374.561 338.891 374.382 338.611 374.122C338.332 373.883 338.113 373.564 337.953 373.205C337.793 372.846 337.714 372.407 337.714 371.928C337.714 371.649 337.754 371.389 337.853 371.11C337.953 370.831 338.093 370.571 338.312 370.332C338.532 370.092 338.791 369.853 339.13 369.634C339.469 369.414 339.868 369.235 340.347 369.055C340.826 368.895 341.384 368.756 342.043 368.656C342.681 368.556 343.419 368.496 344.237 368.476V367.838C344.237 367.12 344.078 366.581 343.778 366.222C343.459 365.883 343.02 365.703 342.442 365.703C342.023 365.703 341.664 365.743 341.384 365.843C341.105 365.943 340.866 366.043 340.646 366.182C340.427 366.322 340.247 366.422 340.068 366.521C339.888 366.621 339.709 366.661 339.489 366.661C339.31 366.661 339.15 366.621 339.03 366.521C338.911 366.422 338.811 366.322 338.731 366.182L338.272 365.344H338.252ZM344.237 370.053C343.479 370.092 342.841 370.152 342.342 370.252C341.823 370.352 341.424 370.472 341.105 370.611C340.786 370.751 340.566 370.93 340.447 371.13C340.307 371.329 340.247 371.549 340.247 371.768C340.247 372.227 340.387 372.546 340.646 372.746C340.906 372.945 341.265 373.045 341.704 373.045C342.242 373.045 342.701 372.945 343.1 372.746C343.499 372.546 343.878 372.267 344.237 371.868V370.033V370.053Z" fill="white"/>
<path d="M358.641 358.98V374.681H357.045C356.706 374.681 356.487 374.521 356.387 374.202L356.167 373.165C355.728 373.664 355.23 374.063 354.651 374.382C354.093 374.701 353.414 374.841 352.676 374.841C352.078 374.841 351.539 374.721 351.04 374.462C350.541 374.202 350.123 373.863 349.763 373.384C349.404 372.925 349.125 372.327 348.945 371.649C348.766 370.97 348.646 370.172 348.646 369.275C348.646 368.477 348.746 367.718 348.965 367.04C349.185 366.342 349.504 365.743 349.903 365.245C350.302 364.746 350.801 364.347 351.379 364.048C351.958 363.748 352.596 363.609 353.295 363.609C353.893 363.609 354.412 363.708 354.851 363.888C355.29 364.088 355.669 364.327 356.008 364.666V358.94H358.621L358.641 358.98ZM356.028 366.601C355.728 366.242 355.409 365.983 355.07 365.843C354.731 365.703 354.352 365.624 353.953 365.624C353.554 365.624 353.195 365.703 352.876 365.843C352.556 365.983 352.277 366.222 352.058 366.521C351.838 366.821 351.659 367.2 351.539 367.659C351.419 368.117 351.359 368.656 351.359 369.294C351.359 369.933 351.419 370.472 351.519 370.91C351.619 371.349 351.758 371.708 351.958 371.988C352.157 372.267 352.377 372.467 352.656 372.586C352.935 372.706 353.235 372.766 353.574 372.766C354.112 372.766 354.571 372.646 354.95 372.427C355.329 372.207 355.689 371.888 356.028 371.469V366.601Z" fill="white"/>
<path d="M366.023 363.669C366.821 363.669 367.559 363.788 368.217 364.068C368.876 364.327 369.434 364.706 369.913 365.185C370.372 365.664 370.751 366.242 370.99 366.94C371.23 367.639 371.369 368.397 371.369 369.255C371.369 370.112 371.25 370.89 370.99 371.589C370.731 372.287 370.372 372.866 369.913 373.344C369.434 373.823 368.876 374.202 368.217 374.462C367.559 374.721 366.821 374.861 366.023 374.861C365.225 374.861 364.467 374.721 363.808 374.462C363.15 374.202 362.571 373.823 362.112 373.344C361.654 372.866 361.275 372.267 361.015 371.589C360.756 370.89 360.636 370.132 360.636 369.255C360.636 368.377 360.756 367.639 361.015 366.94C361.275 366.242 361.634 365.664 362.112 365.185C362.591 364.706 363.15 364.327 363.808 364.068C364.467 363.808 365.205 363.669 366.023 363.669ZM366.023 372.826C366.92 372.826 367.599 372.526 368.018 371.908C368.457 371.309 368.676 370.412 368.676 369.235C368.676 368.058 368.457 367.18 368.018 366.561C367.579 365.943 366.92 365.644 366.023 365.644C365.125 365.644 364.427 365.943 363.988 366.561C363.549 367.18 363.329 368.058 363.329 369.235C363.329 370.412 363.549 371.289 363.988 371.888C364.427 372.506 365.105 372.806 366.023 372.806V372.826Z" fill="white"/>
<path d="M379.988 365.943C379.908 366.063 379.848 366.142 379.768 366.182C379.688 366.222 379.589 366.242 379.469 366.242C379.349 366.242 379.21 366.202 379.07 366.142C378.93 366.083 378.751 365.983 378.571 365.903C378.372 365.823 378.172 365.743 377.913 365.664C377.653 365.584 377.374 365.564 377.055 365.564C376.536 365.564 376.137 365.664 375.838 365.883C375.539 366.102 375.399 366.382 375.399 366.741C375.399 366.98 375.479 367.16 375.619 367.319C375.778 367.479 375.978 367.619 376.217 367.738C376.476 367.858 376.756 367.958 377.075 368.058C377.394 368.157 377.713 368.257 378.033 368.377C378.352 368.496 378.691 368.616 378.99 368.756C379.289 368.895 379.589 369.075 379.848 369.314C380.107 369.534 380.307 369.793 380.446 370.112C380.606 370.432 380.666 370.791 380.666 371.23C380.666 371.748 380.566 372.227 380.387 372.666C380.207 373.105 379.928 373.484 379.549 373.803C379.19 374.122 378.731 374.382 378.192 374.561C377.653 374.741 377.035 374.821 376.317 374.821C375.938 374.821 375.579 374.781 375.22 374.721C374.86 374.661 374.521 374.561 374.202 374.442C373.883 374.322 373.564 374.182 373.284 374.023C373.005 373.863 372.766 373.683 372.546 373.504L373.145 372.506C373.225 372.387 373.304 372.287 373.424 372.227C373.524 372.167 373.663 372.127 373.823 372.127C373.983 372.127 374.142 372.167 374.282 372.267C374.422 372.367 374.601 372.467 374.781 372.566C374.96 372.666 375.2 372.766 375.459 372.865C375.718 372.965 376.038 373.005 376.437 373.005C376.756 373.005 377.015 372.965 377.234 372.885C377.454 372.806 377.633 372.706 377.793 372.586C377.933 372.466 378.052 372.327 378.112 372.167C378.172 372.008 378.212 371.848 378.212 371.669C378.212 371.409 378.132 371.21 377.993 371.05C377.833 370.89 377.634 370.751 377.394 370.631C377.155 370.511 376.855 370.412 376.536 370.312C376.217 370.212 375.878 370.112 375.559 369.993C375.24 369.873 374.9 369.753 374.581 369.594C374.262 369.434 373.983 369.255 373.723 369.015C373.464 368.776 373.264 368.496 373.125 368.157C372.965 367.818 372.905 367.419 372.905 366.94C372.905 366.501 372.985 366.082 373.165 365.664C373.344 365.265 373.604 364.905 373.943 364.606C374.282 364.307 374.721 364.068 375.22 363.888C375.718 363.708 376.317 363.629 376.995 363.629C377.733 363.629 378.432 363.748 379.03 364.008C379.648 364.247 380.147 364.586 380.566 364.985L379.968 365.923L379.988 365.943Z" fill="white"/>
<path d="M337.315 66.3936C351.499 74.1941 362.871 85.0469 371.429 98.952C379.988 112.857 384.257 128.378 384.257 145.495V149.465C384.257 166.443 379.988 181.884 371.429 195.789C362.871 209.694 351.499 220.627 337.315 228.547C324.247 235.789 309.843 239.4 294.123 239.4C278.402 239.4 264.218 235.789 251.131 228.547C237.485 220.906 226.512 210.532 218.153 197.445C209.814 184.378 205.146 169.635 204.168 153.216V20.2892H251.111V66.4136C264.178 59.052 278.522 55.3613 294.103 55.3613C309.684 55.3613 324.227 59.052 337.295 66.4136L337.315 66.3936ZM337.315 149.445V145.475C337.315 133.505 333.105 123.351 324.686 115.012C316.267 106.673 306.073 102.483 294.123 102.483C282.173 102.483 272.218 106.653 263.859 115.012C256.617 122.114 252.447 130.952 251.33 141.505H251.131V153.196H251.33C252.447 163.77 256.617 172.607 263.859 179.69C272.198 188.168 282.292 192.418 294.123 192.418C305.953 192.418 316.267 188.208 324.686 179.789C333.105 171.371 337.315 161.256 337.315 149.426V149.445Z" fill="white"/>
<path d="M276.308 80.0594C275.549 80.0594 254.043 80.1392 246.223 80.1592C207.859 80.2589 204.188 68.1892 204.208 59.072V151.56C204.208 155.211 204.647 127.381 246.223 126.742C256.437 126.583 275.549 126.742 276.308 126.742C289.076 126.742 299.41 116.289 299.41 103.421C299.41 90.5531 289.056 80.0993 276.308 80.0993V80.0594Z" fill="url(#paint0_linear_6429_204)"/>
<path d="M144.418 68.7477C157.864 76.1491 168.697 86.3037 176.917 99.1914C185.136 112.079 189.665 126.623 190.483 142.802H190.682V239.26H144.398V228.567C131.51 235.689 117.326 239.26 101.825 239.26C86.3236 239.26 72.3387 235.689 59.451 228.567C45.466 220.747 34.2541 209.994 25.8153 196.268C17.3764 182.562 13.167 167.341 13.167 150.603V146.692C13.167 129.835 17.3764 114.533 25.8153 100.827C34.2541 87.1216 45.466 76.4284 59.451 68.7477C72.3387 61.4859 86.4633 57.855 101.825 57.855C117.186 57.855 131.51 61.4859 144.398 68.7477H144.418ZM144.418 154.313V142.802H144.219C143.121 132.388 139.012 123.67 131.869 116.688C123.65 108.468 113.635 104.338 101.845 104.338C90.0543 104.338 80.2189 108.448 71.9197 116.688C63.6205 124.907 59.4709 134.922 59.4709 146.712V150.622C59.4709 162.273 63.6205 172.248 71.9197 180.547C80.2189 188.847 90.1939 192.996 101.845 192.996C113.496 192.996 123.65 188.807 131.869 180.448C138.992 173.445 143.121 164.747 144.219 154.333H144.418V154.313Z" fill="white"/>
<defs>
<linearGradient id="paint0_linear_6429_204" x1="204.188" y1="105.476" x2="299.41" y2="105.476" gradientUnits="userSpaceOnUse">
<stop offset="0.15" stop-color="#3BAFE5"/>
<stop offset="1" stop-color="#6EC6D8"/>
</linearGradient>
</defs>
</svg>
