<svg width="481" height="130" viewBox="0 0 481 130" fill="none" xmlns="http://www.w3.org/2000/svg">
<path d="M249.976 52.987C252.862 54.5759 255.195 56.7667 256.974 59.5593C258.754 62.3278 259.716 65.4815 259.908 68.9722H259.956V89.7722H249.976V87.4611C247.21 89.0019 244.132 89.7722 240.813 89.7722C237.494 89.7722 234.463 89.0019 231.674 87.4611C228.667 85.7759 226.238 83.4648 224.435 80.5037C222.607 77.5426 221.717 74.2685 221.717 70.6574V69.8148C221.717 66.1796 222.631 62.8815 224.435 59.9204C226.262 56.9593 228.667 54.6482 231.674 53.0111C234.439 51.4463 237.494 50.6519 240.813 50.6519C244.132 50.6519 247.21 51.4463 249.976 53.0111V52.987ZM249.976 71.4519V68.9722H249.928C249.687 66.7333 248.797 64.8556 247.258 63.3389C245.478 61.5574 243.338 60.6667 240.789 60.6667C238.239 60.6667 236.123 61.5574 234.343 63.3389C232.563 65.1204 231.674 67.263 231.674 69.8148V70.6574C231.674 73.1611 232.563 75.3278 234.343 77.1093C236.123 78.8907 238.287 79.7815 240.789 79.7815C243.29 79.7815 245.478 78.8907 247.258 77.0852C248.797 75.5685 249.687 73.6907 249.928 71.4519H249.976Z" fill="white"/>
<path d="M292.664 52.987C295.671 54.6482 298.1 56.9593 299.903 59.8963C301.731 62.8574 302.621 66.1556 302.621 69.7907V70.6333C302.621 74.2444 301.707 77.5185 299.903 80.4796C298.076 83.4407 295.671 85.7519 292.664 87.437C289.899 88.9778 286.82 89.7481 283.501 89.7481C280.182 89.7481 277.152 88.9778 274.362 87.437C271.476 85.8 269.144 83.6093 267.364 80.8167C265.584 78.0482 264.598 74.8944 264.406 71.4037V43.1407H274.386V52.9389C277.152 51.3741 280.207 50.5796 283.525 50.5796C286.844 50.5796 289.923 51.3741 292.688 52.9389L292.664 52.987ZM292.664 70.6574V69.8148C292.664 67.263 291.775 65.1204 289.995 63.3389C288.215 61.5574 286.051 60.6667 283.501 60.6667C280.952 60.6667 278.86 61.5574 277.08 63.3389C275.541 64.8556 274.651 66.7333 274.41 68.9722H274.362V71.4519H274.41C274.651 73.6907 275.541 75.5685 277.08 77.0852C278.86 78.8907 281 79.7815 283.501 79.7815C286.003 79.7815 288.215 78.8907 289.995 77.1093C291.775 75.3278 292.664 73.1611 292.664 70.6574Z" fill="white"/>
<path d="M316.979 51.4945C319.721 49.9537 322.751 49.1833 326.07 49.1833H326.864V59.1259C326.599 59.1019 326.334 59.0778 326.07 59.0778C323.569 59.0778 321.428 59.9685 319.649 61.75C317.869 63.5315 316.979 65.6741 316.979 68.1778V89.7H307.046V68.1778C307.046 64.5667 307.936 61.2926 309.74 58.3796C311.544 55.4426 313.949 53.1556 316.955 51.4945H316.979Z" fill="white"/>
<path d="M355.531 77.6148C356.204 76.9648 356.782 76.2185 357.215 75.4H367.748C366.33 80.8167 363.155 84.8611 358.225 87.5574C355.459 89.0259 352.381 89.7722 349.062 89.7722C345.743 89.7722 342.712 89.0259 339.923 87.5574C338.407 86.763 337.037 85.7759 335.81 84.6204C333.573 82.55 331.938 80.0704 330.928 77.1574C330.279 75.3278 329.942 73.4019 329.942 71.3796V68.9963C329.942 65.5296 330.856 62.3759 332.66 59.5593C334.487 56.7185 336.892 54.5037 339.899 52.9148C342.664 51.4463 345.719 50.7 349.038 50.7C352.357 50.7 355.435 51.4463 358.201 52.9148C359.716 53.7093 361.087 54.6963 362.313 55.8519C364.55 57.9222 366.185 60.4019 367.195 63.2667L358.201 69.3815L344.252 78.8667C345.671 79.7574 347.258 80.1908 349.038 80.1908C351.587 80.1908 353.727 79.3241 355.507 77.6148H355.531ZM339.947 69.0204V71.0667L353.896 61.5815C352.453 60.6908 350.841 60.2574 349.062 60.2574C346.56 60.2574 344.396 61.1241 342.616 62.8333C340.837 64.5426 339.947 66.613 339.947 69.0445V69.0204Z" fill="white"/>
<path d="M397.498 51.3018V49.8574C397.498 49.4722 397.811 49.1833 398.172 49.1833H405.772C406.156 49.1833 406.445 49.4963 406.445 49.8574V80.6722C406.445 99.2574 381.433 102.965 373.665 88.5926C373.496 88.2796 373.593 87.8704 373.929 87.6778L380.279 84.0426C380.447 83.9463 380.615 83.9222 380.808 83.9704C380.976 84.0185 381.12 84.1389 381.217 84.2833C384.584 90.3018 397.498 89.9167 397.498 81.5389C390.235 85.5111 381.193 83.7778 375.926 77.3981C370.659 71.0185 370.659 61.7741 375.926 55.3944C381.193 49.0148 390.259 47.2815 397.498 51.2537V51.3018ZM380.904 66.4444C380.904 71.0426 384.608 74.75 389.201 74.75C393.795 74.75 397.498 71.0426 397.498 66.4444C397.498 61.8463 393.795 58.1389 389.201 58.1389C384.608 58.1389 380.904 61.8463 380.904 66.4444Z" fill="white"/>
<path d="M436.748 77.6148C437.421 76.9648 437.999 76.2185 438.432 75.4H448.965C447.546 80.8167 444.372 84.8611 439.442 87.5574C436.676 89.0259 433.597 89.7722 430.279 89.7722C426.96 89.7722 423.929 89.0259 421.14 87.5574C419.624 86.763 418.254 85.7759 417.027 84.6204C414.79 82.55 413.155 80.0704 412.145 77.1574C411.495 75.3278 411.159 73.4019 411.159 71.3796V68.9963C411.159 65.5296 412.073 62.3759 413.876 59.5593C415.704 56.7185 418.109 54.5037 421.116 52.9148C423.881 51.4463 426.936 50.7 430.254 50.7C433.573 50.7 436.652 51.4463 439.418 52.9148C440.933 53.7093 442.304 54.6963 443.53 55.8519C445.767 57.9222 447.402 60.4019 448.412 63.2667L439.418 69.3815L425.469 78.8667C426.888 79.7574 428.475 80.1908 430.254 80.1908C432.804 80.1908 434.944 79.3241 436.724 77.6148H436.748ZM421.14 69.0204V71.0667L435.089 61.5815C433.646 60.6908 432.034 60.2574 430.254 60.2574C427.753 60.2574 425.589 61.1241 423.809 62.8333C422.029 64.5426 421.14 66.613 421.14 69.0445V69.0204Z" fill="white"/>
<path d="M463.371 70.6574C463.371 73.1611 464.261 75.3278 466.041 77.1093C467.821 78.8908 469.985 79.7815 472.486 79.7815C472.775 79.7815 473.064 79.7815 473.328 79.7333V89.7482H472.486C469.167 89.7482 466.137 88.9778 463.347 87.437C460.341 85.7519 457.912 83.4408 456.108 80.4796C454.28 77.5185 453.391 74.2445 453.391 70.6333V43.1889H463.371V70.6333V70.6574Z" fill="white"/>
<path d="M177.489 30.7907C184.92 34.8833 190.885 40.5648 195.358 47.8592C199.831 55.1537 202.092 63.2907 202.092 72.2704V74.3407C202.092 83.2481 199.856 91.337 195.358 98.6315C190.885 105.926 184.92 111.656 177.489 115.82C170.635 119.624 163.083 121.502 154.858 121.502C146.633 121.502 139.177 119.6 132.347 115.82C125.204 111.8 119.456 106.383 115.079 99.5222C110.702 92.6611 108.273 84.9333 107.744 76.3148V6.59628H132.347V30.7907C139.201 26.9148 146.705 24.9889 154.858 24.9889C163.011 24.9889 170.635 26.9148 177.489 30.7907ZM177.489 74.3407V72.2704C177.489 65.987 175.276 60.6667 170.875 56.2852C166.474 51.9037 161.135 49.713 154.858 49.713C148.581 49.713 143.386 51.9037 139.009 56.2852C135.209 60.0167 133.021 64.6389 132.443 70.1759H132.323V76.3148H132.443C133.021 81.8518 135.209 86.4981 139.009 90.2055C143.386 94.6592 148.677 96.8741 154.858 96.8741C161.039 96.8741 166.474 94.6592 170.875 90.2537C175.276 85.8481 177.489 80.5278 177.489 74.3407Z" fill="white"/>
<path d="M145.502 37.9407C145.094 37.9407 133.838 37.9889 129.726 37.9889C109.62 38.037 107.696 31.7055 107.72 26.9389V75.4481C107.72 77.35 107.96 62.7611 129.726 62.4241C135.089 62.3278 145.094 62.4241 145.502 62.4241C152.188 62.4241 157.6 56.9352 157.6 50.1944C157.6 43.4537 152.188 37.9648 145.502 37.9648V37.9407Z" fill="url(#paint0_linear_6429_128)"/>
<path d="M76.4068 32.0185C83.4535 35.8944 89.1293 41.2148 93.4342 47.9796C97.7392 54.7444 100.12 62.3759 100.553 70.85H100.649V121.43H76.4068V115.82C69.6488 119.552 62.2173 121.43 54.0884 121.43C45.9595 121.43 38.6483 119.552 31.8903 115.82C24.555 111.728 18.6868 106.07 14.2616 98.8722C9.83644 91.6741 7.62384 83.7056 7.62384 74.9185V72.8722C7.62384 64.037 9.83644 56.0204 14.2616 48.8222C18.6868 41.6241 24.555 36.0148 31.8903 31.9944C38.6483 28.1907 46.0317 26.2889 54.0884 26.2889C62.1452 26.2889 69.6488 28.1907 76.4068 31.9944V32.0185ZM76.4068 76.8926V70.85H76.3106C75.7334 65.3852 73.5689 60.8111 69.8412 57.1518C65.5362 52.8426 60.2933 50.6759 54.1125 50.6759C47.9316 50.6759 42.7849 52.8426 38.4319 57.1518C34.0788 61.4611 31.9143 66.7093 31.9143 72.8963V74.9426C31.9143 81.0574 34.0788 86.2815 38.4319 90.6389C42.7849 94.9963 48.0038 97.163 54.1125 97.163C60.2212 97.163 65.5362 94.9722 69.8412 90.5907C73.5689 86.9315 75.7334 82.3574 76.3106 76.8926H76.4068Z" fill="white"/>
<defs>
<linearGradient id="paint0_linear_6429_128" x1="107.72" y1="51.2778" x2="157.624" y2="51.2778" gradientUnits="userSpaceOnUse">
<stop offset="0.15" stop-color="#3BAFE5"/>
<stop offset="1" stop-color="#6EC6D8"/>
</linearGradient>
</defs>
</svg>
